<svg xmlns="http://www.w3.org/2000/svg" xmlns:xlink="http://www.w3.org/1999/xlink" viewBox="0 0 595.28 595.28"><defs><style>.cls-1{fill:#fda826;}.cls-2{fill:#fff;}.cls-3{fill:url(#linear-gradient);}.cls-4{fill:#00cca5;}.cls-5{fill:#1d1d1b;}</style><linearGradient id="linear-gradient" x1="369.9" y1="265.84" x2="323.77" y2="524.17" gradientUnits="userSpaceOnUse"><stop offset="0.15" stop-color="#00997c"/><stop offset="0.21" stop-color="#009f81"/><stop offset="0.5" stop-color="#00b895"/><stop offset="0.78" stop-color="#00c7a1"/><stop offset="1" stop-color="#00cca5"/></linearGradient></defs><g id="Layer_2" data-name="Layer 2"><rect class="cls-1" width="595.28" height="595.28" rx="17.1"/><path class="cls-2" d="M390.47,301.24l20.88-41.77a42.26,42.26,0,0,1,8-11.08l-78.1-.83-9,33.9a29.75,29.75,0,0,0,28.42,36.19h3.49A30.06,30.06,0,0,0,390.47,301.24Z"/><path class="cls-3" d="M422.34,265.91l-20.5,41a42.5,42.5,0,0,1-38,23.49h-.35l-2.46,0-.4,0H258.1L216.71,496.94l209.37,0,52-210.73a30.25,30.25,0,0,0-.52-17.38,29.89,29.89,0,0,0-27-20.13h-.07A31.08,31.08,0,0,0,422.34,265.91Z"/><path class="cls-2" d="M328,314.23A42.27,42.27,0,0,1,320,278.41L367.79,98.32H166.29l-49.52,185a28.22,28.22,0,0,0,27.11,34.38H331.05A41.21,41.21,0,0,1,328,314.23Z"/><path class="cls-4" d="M411.35,259.47l-20.88,41.77a30.06,30.06,0,0,1-26.27,16.41h.28v12.71h-3.87l.4,0,2.46,0h.37a42.48,42.48,0,0,0,38-23.48l20.88-41.76a29.68,29.68,0,0,1,27.78-16.44l-31.1-.33A42.26,42.26,0,0,0,411.35,259.47Z"/><path class="cls-4" d="M451.44,236l-.59.55-.13,12.13h-.16A29.72,29.72,0,0,1,475.36,264c3.88,6.88,4.51,15.12,2.62,22.79L431.77,473.92a30.3,30.3,0,0,1-29.41,23l-168,0A13.79,13.79,0,0,1,221,479.81l37-148.79a.53.53,0,0,0-.52-.66H143.82l.46,0,100,0a.53.53,0,0,1,.52.66L206.55,485.14a19.75,19.75,0,0,0,19.16,24.51H420.57a19.76,19.76,0,0,0,19.17-15l50.85-206A42.48,42.48,0,0,0,451.44,236Z"/><path class="cls-4" d="M143.88,317.65a28.22,28.22,0,0,1-27.11-34.38L163,110.53a16.47,16.47,0,0,1,15.91-12.21H353.58a10.93,10.93,0,0,1,10.56,13.74L320,278.41A42.27,42.27,0,0,0,328,314.23a41.21,41.21,0,0,0,3,3.42h29.66a29.75,29.75,0,0,1-28.42-36.19l9-33.9L336,247.5l.14-12.7,8.49.09L378.1,109a18.62,18.62,0,0,0-18-23.39H170.83a18.62,18.62,0,0,0-18,13.8L104.45,280.19a40.86,40.86,0,0,0,37.79,50.08V317.65Z"/><path class="cls-5" d="M142.24,330.36h1.58c-.53,0-1-.06-1.58-.09Z"/><path class="cls-4" d="M331.05,317.65H143.88c.15,0,.3,0,.46,0l116.66,1-2.9,11.67H360.61A42.22,42.22,0,0,1,331.05,317.65Z"/><path class="cls-5" d="M363.57,317.7c.21,0,.42,0,.63-.05h-3.49l.4,0Z"/><path class="cls-4" d="M261.26,317.65l-116.92,0c-.16,0-.31,0-.46,0h-1.64v12.62l.09.09H258.1Z"/><path class="cls-4" d="M360.61,330.36h3.87V317.65h-.28c-.21,0-.42.05-.63.05l-2.46,0-.4,0H331.05A42.22,42.22,0,0,0,360.61,330.36Z"/><path class="cls-4" d="M419.39,248.39A42.52,42.52,0,0,1,450.86,236h0l-106.2-1.13-3.37,12.67Z"/><path class="cls-5" d="M450.49,248.72h0Z"/><polygon class="cls-4" points="336.03 247.5 341.29 247.56 344.66 234.89 336.17 234.8 336.03 247.5"/><path class="cls-4" d="M419.39,248.39l31.1.33h.23l.14-12.7A42.52,42.52,0,0,0,419.39,248.39Z"/></g></svg>