<svg xmlns="http://www.w3.org/2000/svg" xmlns:xlink="http://www.w3.org/1999/xlink" viewBox="0 0 595.28 595.28"><defs><style>.cls-1{fill:#fff;}.cls-2{fill:url(#linear-gradient);}.cls-3{fill:#00cca5;}.cls-4{fill:#1d1d1b;}</style><linearGradient id="linear-gradient" x1="392.1" y1="252.99" x2="327.34" y2="615.64" gradientUnits="userSpaceOnUse"><stop offset="0.15" stop-color="#00997c"/><stop offset="0.21" stop-color="#009f81"/><stop offset="0.5" stop-color="#00b895"/><stop offset="0.78" stop-color="#00c7a1"/><stop offset="1" stop-color="#00cca5"/></linearGradient></defs><g id="Layer_2" data-name="Layer 2"><path class="cls-1" d="M421,302.69l29.31-58.63a59.64,59.64,0,0,1,11.29-15.56l-109.63-1.16-12.65,47.59a41.79,41.79,0,0,0,39.91,50.81h4.9A42.21,42.21,0,0,0,421,302.69Z"/><path class="cls-2" d="M465.7,253.1l-28.77,57.56a59.67,59.67,0,0,1-53.37,33h-.49l-3.46,0c-.19,0-.37,0-.56,0H235.15L177,577.42l293.92,0,73-295.82c2-8.05,2.07-16.59-.72-24.39A42,42,0,0,0,505.32,229h-.09A43.65,43.65,0,0,0,465.7,253.1Z"/><path class="cls-1" d="M333.31,320.94A59.42,59.42,0,0,1,322,270.65L389.13,17.83H106.26L36.75,277.46A39.63,39.63,0,0,0,74.8,325.74H337.56A60.93,60.93,0,0,1,333.31,320.94Z"/><path class="cls-3" d="M450.28,244.06,421,302.69a42.21,42.21,0,0,1-36.87,23.05h.38v17.83h-5.43c.19,0,.37,0,.56,0l3.46,0h.51a59.63,59.63,0,0,0,53.34-33L466.23,252a41.67,41.67,0,0,1,39-23.07l-43.66-.47A59.64,59.64,0,0,0,450.28,244.06Z"/><path class="cls-3" d="M506.56,211.17l-.82.77-.19,17h-.23a41.71,41.71,0,0,1,34.82,21.4c5.44,9.66,6.33,21.24,3.67,32L478.94,545.11a42.51,42.51,0,0,1-41.28,32.33l-235.83,0a19.38,19.38,0,0,1-18.81-24l51.89-208.86a.75.75,0,0,0-.73-.94H74.73c.21,0,.42,0,.64,0l140.43,0a.76.76,0,0,1,.74.94L162.78,560.85a27.73,27.73,0,0,0,26.91,34.41l273.53,0a27.71,27.71,0,0,0,26.91-21.08L561.52,285a59.64,59.64,0,0,0-55-73.86Z"/><path class="cls-3" d="M74.8,325.74a39.63,39.63,0,0,1-38-48.28L101.67,35A23.14,23.14,0,0,1,124,17.83H369.18A15.35,15.35,0,0,1,384,37.12L322,270.65a59.42,59.42,0,0,0,11.33,50.29,60.93,60.93,0,0,0,4.25,4.8H379.2a41.79,41.79,0,0,1-39.91-50.81l12.65-47.59-7.39-.08.19-17.84,11.92.13L403.6,32.85A26.14,26.14,0,0,0,378.34,0H112.63A26.13,26.13,0,0,0,87.39,19.38L19.45,273.14a57.37,57.37,0,0,0,53.06,70.31V325.74Z"/><path class="cls-4" d="M72.51,343.57h2.22c-.75,0-1.48-.09-2.22-.12Z"/><path class="cls-3" d="M337.56,325.74H74.8c.22,0,.43,0,.65,0l163.77,1.43-4.07,16.37h143.9A59.27,59.27,0,0,1,337.56,325.74Z"/><path class="cls-4" d="M383.21,325.8c.3,0,.59-.06.89-.06h-4.9c.18,0,.37,0,.56,0Z"/><path class="cls-3" d="M239.58,325.74l-164.13,0c-.22,0-.43,0-.65,0H72.51v17.71l.12.12H235.15Z"/><path class="cls-3" d="M379.05,343.57h5.43V325.74h-.38c-.3,0-.59.06-.89.06l-3.45,0c-.19,0-.38,0-.56,0H337.56A59.27,59.27,0,0,0,379.05,343.57Z"/><path class="cls-3" d="M461.57,228.5a59.69,59.69,0,0,1,44.18-17.36h0l-149.09-1.59-4.72,17.79Z"/><path class="cls-4" d="M505.23,229h0Z"/><polygon class="cls-3" points="344.55 227.26 351.94 227.34 356.66 209.55 344.74 209.42 344.55 227.26"/><path class="cls-3" d="M461.57,228.5l43.66.47h.32l.2-17.83A59.69,59.69,0,0,0,461.57,228.5Z"/></g></svg>